<svg xmlns="http://www.w3.org/2000/svg" fill="#3a382e" width="245.458" height="106.402" viewBox="0 0 245.458 106.402"><path fill="currentColor" d="M246.113,96.792c-4.709.4-9.348.717-13.972,1.257a506.616,506.616,0,0,1-67.048,3.087,13.177,13.177,0,0,0-4.5.609,4.245,4.245,0,0,0-2.664,2.162c-.683,1.305-2.206,2.025-3.616,2.584a.8.8,0,0,1-1.132-.853c.075-.856-.381-1.026-1.019-1.127-1.933-.309-3.868-.609-5.8-.929a.731.731,0,0,0-.809.348c-.384.556-.852,1.081-1.569.583-.669-.464-.428-1.148-.158-1.739,1.011-2.218,2.02-4.438,3.084-6.631.907-1.869,1.892-3.7,2.832-5.555a5.77,5.77,0,0,0,.267-.762c-.384-.044-.5.3-.685.507a122.787,122.787,0,0,1-13.162,12.772c-.457.392-.924,1.116-1.625.7s-.082-.971.12-1.449c.094-.22.069-.451-.206-.392-1.343.285-2.692-.1-4.054-.031-2.383.123-4.161,1.446-6.263,2.029-.561.155-1.307.215-1.424-.453-.245-1.4-.722-.6-1.2-.224-.283.222-.557.457-.85.665-.417.3-.832.717-1.4.371-.525-.321-.292-.835-.064-1.549-1.21,1.117-2.186,2.039-3.187,2.933a3.718,3.718,0,0,1-2.22,1.094c-.853.055-1.4-.279-1.374-1.23.007-.328-.014-.657-.023-.986-.238.258-.462.531-.72.769a7.114,7.114,0,0,1-.926.746.531.531,0,0,1-.749-.133.46.46,0,0,1,.055-.651c3.255-3.239,3.488-7.524,4.2-11.7,2.562-14.981,7.7-29.191,13.237-43.266A343.368,343.368,0,0,1,149.213,4.817a33.371,33.371,0,0,1,2.222-3.272c.5-.665,1.1-1.466,2.065-1.015.9.42.693,1.346.555,2.138a70.483,70.483,0,0,1-3.372,11.364c-6.225,17.586-14.256,34.4-21.967,51.351-4.773,10.49-8.61,21.345-12.891,32.027-.938,2.34-2.063,4.6-1.989,7.209.008.27-.023.541-.036.811a2.582,2.582,0,0,0,.858-.323c1.481-1.341,2.932-2.714,4.39-4.079a4.517,4.517,0,0,1,.506-.51c.651-.433,1.109-1.585,2.055-1.019s-.088,1.408-.1,2.259c1.382-.949,2.678-1.852,3.99-2.731.351-.235.776-.608,1.178-.186s0,.819-.247,1.162c-.53.738-1.09,1.455-1.637,2.181a7.383,7.383,0,0,0,2.782-.927,12.4,12.4,0,0,1,5.881-.409c1.639.141,3.192.323,4.8-1.19a115.586,115.586,0,0,0,20.417-24.825c6.388-10.716,13.185-21.189,21.224-30.783a30.6,30.6,0,0,1,2.333-2.406c.4-.385.935-.789,1.483-.333.473.394.245.961.032,1.445a44.238,44.238,0,0,1-3.975,7.108c-6.426,9.416-13.221,18.562-20.146,27.616-4.221,5.519-6.872,11.95-10.062,18.1,1-1.086,1.985-2.188,3.011-3.25.436-.451.977-1.037,1.631-.432.621.573.192,1.194-.23,1.691Q150.9,97.2,147.8,100.782c-.61.708-.685,1.067.463,1.18a23.132,23.132,0,0,1,4.947.892c.916.3,2.037-.818,2.83.4.156-.109.38-.183.458-.334,1.517-2.9,4.363-3.2,7.093-3.4,7.9-.56,15.833-.106,23.745-.407,15.3-.583,30.635-.075,45.889-1.842,3.926-.455,7.9-.533,11.847-.768C245.394,96.484,245.782,96.32,246.113,96.792ZM115.76,93.7c.179-.437.37-.869.536-1.311,2.611-6.919,5-13.924,7.941-20.715,6.431-14.858,13.6-29.392,19.71-44.389,3.136-7.694,6.4-15.358,8.419-23.458a6.131,6.131,0,0,0,.089-.934c-.464-.016-.543.41-.721.676a119.829,119.829,0,0,0-7.166,12.879A385.078,385.078,0,0,0,119.753,77.2,128.5,128.5,0,0,0,115.76,93.7Zm51.188-28.584c5.174-6.859,10.614-13.533,14.777-21.1A178.969,178.969,0,0,0,166.948,65.119Z" transform="translate(-0.655 -0.399)"/><path d="M60.792,99.17a21.585,21.585,0,0,0,6.456-.3c.348-.065.8-.156.881.33.07.408-.329.492-.653.53-4.64.547-9.273,1.405-13.961.5-4.57-.879-5.893-3.695-3.7-7.787.128-.239.375-.618.293-.727-.225-.3-.575-.044-.866.029a17.13,17.13,0,0,1-3.815.32c-1.153.029-1.553-.512-1.523-1.617.049-1.817-.577-2.275-2.393-1.836a11.369,11.369,0,0,1-3.049.581c-.468-.015-1.019.147-1.282-.4-.29-.6.22-.942.548-1.329.225-.265.437-.54.655-.811-.414-.3-.751.042-1.094.16-1.207.416-2.389.905-3.6,1.3a1.205,1.205,0,0,1-1.515-.361c-.357-.543.007-.976.281-1.422.127-.206.519-.395.256-.654-.1-.1-.523.05-.762.164-2.271,1.084-4.525,2.2-6.808,3.264-.538.25-1.294.731-1.716-.015s.414-1.073.871-1.475c.625-.549,1.256-1.09,1.885-1.635-.887-.119-1.657.385-2.5.476-2.3.249-3.511,1.428-4.042,3.748-.668,2.911-1.715,5.736-2.631,8.588-.092.286,0,.9-.477.792-.5-.11-.3-.645-.242-1.034a54.948,54.948,0,0,1,2.472-9.627c.094-.271.411-.622.067-.856-.16-.109-.518.069-.784.124-.117.024-.229.079-.346.1-4.3.739-6.972,3.078-7.864,7.508a46.952,46.952,0,0,1-2.161,6.346c-.155.433-.279,1.231-.7,1.111-.523-.149-.055-.8.028-1.207a71.323,71.323,0,0,1,2.844-9.905c.1-.271.41-.625.08-.861-.142-.1-.522.089-.776.192-2.26.913-4.507,1.859-6.779,2.74C1.825,94.433.99,94.906.7,94.1c-.252-.7.679-.735,1.143-.939,2.744-1.207,5.492-2.405,8.265-3.542a2.23,2.23,0,0,0,1.224-1.506A171.671,171.671,0,0,1,25.513,58.79,63.357,63.357,0,0,1,31.4,50.628a7.206,7.206,0,0,0,.52-.77c-.328-.217-.605.024-.884.117-4.169,1.393-8.33,2.814-12.508,4.18A1.406,1.406,0,0,0,17.51,55.44a12.6,12.6,0,0,1-2.057,5.324c-.354.477-.831,1.085-1.471.7-.733-.446-.056-.98.179-1.425a15.9,15.9,0,0,0,1.625-5.122,2.5,2.5,0,0,1,1.77-2.145A274.626,274.626,0,0,1,70.87,37.607c11.824-2.1,23.787-3.043,35.687-4.511.557-.069,1.359-.139,1.374.55.02.912-.929.676-1.5.745A442.1,442.1,0,0,0,42.389,46.5a2.015,2.015,0,0,0-1.461.9c-6.772,12.054-13.9,23.925-18.968,36.855-.148.378-.612.812-.247,1.172.159.156.731-.1,1.115-.181,1.526-.307,3.042-.686,4.581-.9.926-.129,1.513.276,1.038,1.358-.061.137-.1.283-.153.425a2.037,2.037,0,0,0,.53-.065c1.328-.551,2.64-1.142,3.977-1.667.474-.186,1.057-.344,1.457.131s.13.982-.064,1.47c-.1.241-.159.5-.237.745a4.028,4.028,0,0,0,.913-.075c1.143-.364,2.267-.784,3.41-1.149.521-.166,1.127-.431,1.54.152.4.559-.007,1.057-.289,1.538-.137.235-.435.575-.365.692.194.328.571.1.865.055.827-.129,1.647-.3,2.472-.438,1.732-.291,2.6.515,2.626,2.2.012.859.343,1.095,1.152,1.047a11.9,11.9,0,0,0,7.561-2.757,42.018,42.018,0,0,1,14.269-8.186c.932-.313,2.358-1.007,2.853-.012.533,1.07-.977,1.632-1.767,2.165a87.267,87.267,0,0,1-14.052,7.5,8.018,8.018,0,0,0-4.424,5.648c-.5,1.86.851,2.681,2.359,3.164A27.229,27.229,0,0,0,60.792,99.17ZM13.036,88.427c1.95-.665,3.713-1.316,5.509-1.86a2.379,2.379,0,0,0,1.71-1.617,182.176,182.176,0,0,1,9.656-21.4,166.578,166.578,0,0,1,9.2-15.3,5.07,5.07,0,0,0,.363-.811,1.905,1.905,0,0,0-.461.016c-2.558.744-5,1.429-6.74,3.88A157.17,157.17,0,0,0,17.785,76.55c-1.676,3.624-3.166,7.333-4.718,11.012C12.964,87.807,12.58,88.224,13.036,88.427ZM56.9,87.554a74.035,74.035,0,0,0,12.36-6.576,3.223,3.223,0,0,0,.53-.593,2.881,2.881,0,0,0-.8.042A41.133,41.133,0,0,0,56.9,87.554Z" transform="translate(-0.655 -0.399)"/></svg>
